<svg height="497pt" viewBox="0 -1 497.76 497" width="497pt" xmlns="http://www.w3.org/2000/svg"><path d="m207.808594 335.785156c9.207031-1.773437 16.917968-7.542968 21.496094-15.390625h268.457031v-288h-77.042969c-14.925781-18.128906-36.574219-30.226562-61.117188-31.816406-24.707031-1.625-48.089843 6.792969-66.015624 23.601563-2.738282 2.566406-5.226563 5.34375-7.59375 8.214843h-204.230469v171.792969c-14.832031 15.75-24 36.910156-24 60.207031v40c0 15.574219 11.191406 28.542969 25.949219 31.390625 2.503906 10.089844 7.386718 19.234375 14.050781 26.800782v15.855468l-55.882813 16.769532c-14.199218 4.253906-24.832031 15.933593-27.734375 30.472656l-14.144531 70.710937h291.519531l-14.144531-70.71875c-2.902344-14.539062-13.527344-26.210937-27.734375-30.472656l-55.878906-16.761719v-15.855468c6.664062-7.574219 11.542969-16.710938 14.046875-26.800782zm-30.046875 44.082032-32 19.199218-32-19.199218v-4.128907c9.421875 5.472657 20.335937 8.65625 32 8.65625 11.664062 0 22.574219-3.183593 32-8.65625zm-41.058594 60.527343h18.121094l5.710937 40h-29.542968zm18.503906-16h-18.886719l-2.800781-14.023437 12.242188 7.351562 12.246093-7.351562zm-9.445312-56c-26.472657 0-48-21.527343-48-48v-26.234375l32-10.671875v12.90625h8c19.167969 0 38.335937-3.9375 56-11.402343v35.402343c0 26.472657-21.53125 48-48 48zm64-50.226562v-27.542969c4.757812 2.777344 8 7.882812 8 13.777344 0 5.894531-3.242188 10.992187-8 13.765625zm272-269.773438v183.527344c-4.800781-9.929687-13.554688-17.542969-24.488281-20.832031l-55.511719-16.648438v-6.710937c8.605469-8.648438 14.238281-15.9375 15.644531-28.65625 14.898438-5.230469 24.355469-24.976563 24.355469-38.679688v-29.265625c0-15.40625-3.792969-29.960937-10.425781-42.734375zm-177.226563-12.535156c14.671875-13.753906 33.839844-20.640625 54.039063-19.304687 37.671875 2.429687 67.1875 35.191406 67.1875 74.574218v29.265625c0 9.910157-8.273438 24-16 24h-8v8c0 12.34375-3.496094 16.390625-13.59375 26.289063l-2.40625 2.351562v25.320313l66.910156 20.070312c8.6875 2.609375 15.097656 9.777344 16.726563 18.695313l10.777343 59.273437h-246.414062v-35.304687l4.359375-23.976563c1.632812-8.925781 8.015625-16.085937 16.671875-18.679687l66.96875-20.085938v-25.3125l-2.410157-2.351562c-10.09375-9.898438-13.589843-13.945313-13.589843-26.289063v-8h-8c-7.730469 0-16-14.089843-16-24v-32c0-20.121093 8.085937-38.777343 22.773437-52.535156zm-29.007812 12.535156c-6.28125 12.296875-9.765625 25.992188-9.765625 40v32c0 13.703125 9.453125 33.449219 24.351562 38.679688 1.40625 12.710937 7.039063 20.007812 15.648438 28.65625v6.710937l-55.5625 16.664063c-10.207031 3.0625-18.445313 9.96875-23.40625 18.96875-13.402344-31.519531-44.679688-53.679688-81.03125-53.679688-17.714844 0-34.1875 5.304688-48 14.335938v-142.335938zm-129.765625 144c39.703125 0 72 32.304688 72 72v12.449219c-2.480469-1.449219-5.152344-2.578125-8-3.3125v-9.136719h-16v2.992188c-14.960938 7.3125-31.386719 11.695312-48 12.757812v-18.839843l-48 16v-12.910157h-16v9.136719c-2.851563.742188-5.523438 1.863281-8 3.3125v-12.449219c0-39.695312 32.292969-72 72-72zm-72 112c0-5.898437 3.238281-11 8-13.777343v27.542968c-4.761719-2.765625-8-7.871094-8-13.765625zm-43.929688 124.421875c1.742188-8.71875 8.128907-15.726562 16.640625-18.277344l58.207032-17.464843 10.296874 6.175781 6.671876 33.351562-6.832032 47.792969h-31.832031l6.695313-46.863281-15.839844-2.265625-7.023438 49.128906h-47.296875zm215.214844-18.277344c8.511719 2.550782 14.898437 9.558594 16.640625 18.277344l10.3125 51.578125h-47.304688l-7.015624-49.136719-15.839844 2.265626 6.695312 46.871093h-31.832031l-6.824219-47.792969 6.671875-33.351562 10.296875-6.175781zm0 0"/><path d="m353.761719 128.394531c-4.417969 0-8-3.59375-8-8h-16c0 10.414063 6.710937 19.214844 16 22.527344v9.472656h16v-9.472656c9.285156-3.3125 16-12.113281 16-22.527344 0-13.234375-10.769531-24-24-24-4.417969 0-8-3.59375-8-8 0-4.410156 3.582031-8 8-8 4.414062 0 8 3.589844 8 8h16c0-10.417969-6.714844-19.214843-16-22.527343v-9.472657h-16v9.472657c-9.289063 3.3125-16 12.109374-16 22.527343 0 13.230469 10.765625 24 24 24 4.414062 0 8 3.589844 8 8 0 4.40625-3.585938 8-8 8zm0 0"/><path d="m113.761719 72.394531h16v16h-16zm0 0"/><path d="m145.761719 72.394531h104v16h-104zm0 0"/><path d="m113.761719 104.394531h136v16h-136zm0 0"/><path d="m113.761719 136.394531h136v16h-136zm0 0"/></svg>